<svg width="21" height="21" viewBox="0 0 21 21" fill="none" xmlns="http://www.w3.org/2000/svg">
<g clip-path="url(#clip0_201_236)">
<path fill-rule="evenodd" clip-rule="evenodd" d="M3.53795 0.4375C2.20458 0.4375 1.12292 1.54192 1.12292 2.90559C1.12292 4.26925 2.20371 5.39923 3.53617 5.39923C4.86862 5.39923 5.95119 4.26925 5.95119 2.90559C5.95119 1.54285 4.87132 0.4375 3.53795 0.4375ZM15.3204 6.98012C13.2924 6.98012 12.1321 8.06473 11.5755 9.14333H11.5166V7.27036H7.52015V21H11.6844V14.2037C11.6844 12.4128 11.8166 10.6822 13.9834 10.6822C16.1192 10.6822 16.1503 12.7242 16.1503 14.3168V21H20.3146V13.4588C20.3146 9.7688 19.5388 6.98012 15.3204 6.98012ZM1.45492 7.27036V21H5.62275V7.27036H1.45492Z" fill="white"/>
</g>
<defs>
<clipPath id="clip0_201_236">
<rect width="20.5625" height="20.5625" fill="white" transform="translate(0.4375 0.4375)"/>
</clipPath>
</defs>
</svg>
