<svg width="22" height="21" viewBox="0 0 22 21" fill="none" xmlns="http://www.w3.org/2000/svg">
<g clip-path="url(#clip0_201_233)">
<path fill-rule="evenodd" clip-rule="evenodd" d="M21.4375 2.85645C20.6356 3.31144 19.0265 3.93152 18.0806 4.11038C18.0529 4.11725 18.0303 4.1261 18.0036 4.13298C17.1676 3.34485 16.0223 2.85645 14.7547 2.85645C12.1998 2.85645 10.1281 4.8366 10.1281 7.27862C10.1281 7.40735 10.1168 7.64418 10.1281 7.76998C6.68082 7.76998 4.05705 6.04435 2.17558 3.83915C1.97098 4.3305 1.88153 5.10684 1.88153 5.83601C1.88153 7.21278 3.00733 8.56498 4.76028 9.40323C4.43745 9.48282 4.08172 9.53983 3.7116 9.53983C3.11426 9.53983 2.48196 9.38947 1.90313 8.9335C1.90313 8.9502 1.90313 8.96593 1.90313 8.98361C1.90313 10.9078 4.03957 12.2177 5.93954 12.5823C5.554 12.7995 4.77673 12.8211 4.39736 12.8211C4.13004 12.8211 3.18417 12.7041 2.93125 12.6589C3.45971 14.2362 5.36585 15.1226 7.18255 15.154C5.76168 16.2193 4.77571 16.6143 1.86611 16.6143H0.875C2.71329 17.7406 5.05433 18.5807 7.40051 18.5807C15.0394 18.5807 19.3813 13.0157 19.3813 7.76998C19.3813 7.68546 19.3792 7.50857 19.376 7.3307C19.376 7.31302 19.3813 7.29631 19.3813 7.27862C19.3813 7.25209 19.373 7.22653 19.373 7.20001C19.37 7.06635 19.3669 6.94155 19.3637 6.87669C20.1759 6.31655 20.8803 5.61784 21.4375 4.82186C20.692 5.13829 19.8922 5.35056 19.0522 5.44686C19.9097 4.9555 21.1281 3.78412 21.4375 2.85645Z" fill="white"/>
</g>
<defs>
<clipPath id="clip0_201_233">
<rect width="20.5625" height="20.5625" fill="white" transform="translate(0.875 0.4375)"/>
</clipPath>
</defs>
</svg>
