<svg width="21" height="21" viewBox="0 0 21 21" fill="none" xmlns="http://www.w3.org/2000/svg">
<g clip-path="url(#clip0_201_230)">
<path fill-rule="evenodd" clip-rule="evenodd" d="M6.64815 1.04199C3.64294 1.04199 1.19131 3.49361 1.19131 6.49883V14.3848C1.19131 17.3899 3.64294 19.8416 6.64815 19.8416H14.534C17.5393 19.8416 19.9908 17.3899 19.9908 14.3848V6.49883C19.9908 3.49361 17.5393 1.04199 14.534 1.04199H6.64815ZM6.64826 2.48775H14.5341C16.7569 2.48775 18.5449 4.27281 18.5449 6.49848V14.3844C18.5449 16.6072 16.7598 18.395 14.5341 18.395H6.64826C4.42542 18.395 2.63755 16.61 2.63755 14.3844V6.49848C2.63755 4.27564 4.42259 2.48775 6.64826 2.48775ZM16.014 3.93477C15.4152 3.93477 14.9294 4.42058 14.9294 5.01936C14.9294 5.61815 15.4152 6.10396 16.014 6.10396C16.6128 6.10396 17.0985 5.61815 17.0985 5.01936C17.0985 4.42058 16.6128 3.93477 16.014 3.93477ZM10.5907 5.38057C7.80299 5.38057 5.52931 7.65426 5.52931 10.442C5.52931 13.2297 7.80299 15.5034 10.5907 15.5034C13.3785 15.5034 15.6521 13.2297 15.6521 10.442C15.6521 7.65426 13.3785 5.38057 10.5907 5.38057ZM10.591 6.82638C12.5964 6.82638 14.2063 8.43632 14.2063 10.4417C14.2063 12.447 12.5964 14.057 10.591 14.057C8.58564 14.057 6.9757 12.447 6.9757 10.4417C6.9757 8.43632 8.58564 6.82638 10.591 6.82638Z" fill="white"/>
</g>
<defs>
<clipPath id="clip0_201_230">
<rect width="20.5625" height="20.5625" fill="white" transform="translate(0.3125 0.4375)"/>
</clipPath>
</defs>
</svg>
